<?xml version="1.0" encoding="UTF-8"?> <svg xmlns="http://www.w3.org/2000/svg" width="70" height="68" viewBox="0 0 70 68" fill="none"><rect x="1" y="0.5" width="68" height="67" rx="33.5" stroke="#AAD92F"></rect><g clip-path="url(#clip0_253_1348)"><path d="M49.9631 46.3694H47.5603V34.9134C48.5108 34.6342 49.3377 34.0123 49.8713 33.1395C50.6027 31.9487 50.6911 30.4822 50.1045 29.2172L46.5073 21.4609C46.2564 20.9202 45.7087 20.5704 45.1115 20.5704H40.2174C40.1503 20.5563 40.0831 20.5563 40.0125 20.5704H29.9734C29.9028 20.5563 29.8356 20.5563 29.7685 20.5704H24.8744C24.2772 20.5704 23.7295 20.9202 23.4786 21.4609L19.8885 29.2243C19.3019 30.4893 19.3902 31.9522 20.1217 33.1431C20.6588 34.0123 21.4821 34.6378 22.4327 34.9169V46.3729H20.0369C19.7436 46.3729 19.5033 46.6097 19.5033 46.9065C19.5033 47.2033 19.74 47.4401 20.0369 47.4401H49.9631C50.2564 47.4401 50.4967 47.2033 50.4967 46.9065C50.4967 46.6097 50.26 46.3729 49.9631 46.3729V46.3694ZM23.5811 35.0795C24.7331 35.0795 25.8179 34.6342 26.6342 33.825C26.9345 33.5247 27.1889 33.189 27.3868 32.8286C27.5847 33.1925 27.8391 33.5282 28.1395 33.825C28.9027 34.5812 29.8992 35.0194 30.9628 35.0759V46.3729H23.4963V35.0795C23.5246 35.0795 23.5493 35.0795 23.5776 35.0795H23.5811ZM30.2844 21.6411H34.4682V30.8109C34.4682 30.8109 34.4682 30.8356 34.4682 30.8462C34.4117 32.6236 32.9735 34.0123 31.1961 34.0123C29.4186 34.0123 27.9769 32.5918 27.9239 30.8356L30.2844 21.6411ZM39.705 21.6411L42.0726 30.8321C42.0231 32.5918 40.5672 34.0159 38.8004 34.0159C37.0336 34.0159 35.6202 32.6519 35.5318 30.9063V21.6411H39.705ZM32.03 34.9982C32.8498 34.8392 33.6025 34.447 34.2138 33.8533C34.5283 33.5494 34.7898 33.2031 34.9982 32.8286C35.7368 34.1749 37.1644 35.0795 38.804 35.0795C39.9559 35.0795 41.0407 34.6342 41.857 33.825C42.1609 33.5247 42.4118 33.189 42.6097 32.825C42.8076 33.189 43.062 33.5247 43.3623 33.825C44.1786 34.6342 45.2634 35.0795 46.4154 35.0795C46.4437 35.0795 46.4684 35.0795 46.4967 35.0795V46.3729H32.03V35.0017V34.9982ZM45.5426 21.9167L49.1398 29.673C49.5744 30.613 49.5108 31.7013 48.9667 32.5883C48.4295 33.4611 47.5426 33.9805 46.5285 34.0159C46.4896 34.0159 46.4543 34.0159 46.4154 34.0159C44.6274 34.0159 43.1609 32.5635 43.1432 30.7755V30.7685C43.1432 30.7579 43.1432 30.7473 43.1432 30.7367C43.1432 30.7296 43.1432 30.719 43.1432 30.7119C43.1432 30.7049 43.1432 30.6943 43.1397 30.6872C43.1397 30.6766 43.1362 30.666 43.1326 30.6589V30.6518L40.8111 21.6482H45.1185C45.3023 21.6482 45.4684 21.7542 45.5461 21.9203L45.5426 21.9167ZM21.0298 32.5847C20.4856 31.7013 20.422 30.6094 20.8567 29.673L24.4504 21.9167C24.5281 21.7506 24.6942 21.6446 24.8779 21.6446H29.1854L26.8815 30.6094C26.8638 30.6624 26.8532 30.719 26.8532 30.7791C26.8356 32.5671 25.3656 34.0194 23.5811 34.0194C23.5422 34.0194 23.5069 34.0194 23.468 34.0194C22.4574 33.9841 21.5669 33.4646 21.0298 32.5918V32.5847Z" fill="#70970A"></path><path d="M28.9229 42.1807C29.2048 42.1807 29.4357 41.953 29.4357 41.6677V38.763C29.4357 38.481 29.2082 38.25 28.9229 38.25C28.6377 38.25 28.4102 38.4776 28.4102 38.763V41.6677C28.4102 41.9496 28.6377 42.1807 28.9229 42.1807Z" fill="#70970A"></path></g><defs><clipPath id="clip0_253_1348"><rect width="30.9934" height="26.8803" fill="white" transform="translate(19.5033 20.5598)"></rect></clipPath></defs></svg> 